<svg id="Layer_1" data-name="Layer 1" xmlns="http://www.w3.org/2000/svg" viewBox="0 0 253.58 252.5"><title>teslalogo</title><path d="M234.39,0H19.19A19.19,19.19,0,0,0,0,19.19V233.31A19.19,19.19,0,0,0,19.19,252.5h215.2a19.19,19.19,0,0,0,19.19-19.19V19.19A19.19,19.19,0,0,0,234.39,0ZM186.93,86.11c-1.13-11.17-9-13.9-33.94-13.9L126.81,219.4,100.42,72.21c-24.78,0-32.64,2.72-33.78,13.88,0,0-16.74-6.24-25.18-18.91,32.93-15.26,66-16,66-16l19.3,23.5,19.28-23.48s33.09.69,66,16C203.66,79.87,186.93,86.11,186.93,86.11Zm28.16-24A215.77,215.77,0,0,0,126.8,44.43h0a215.64,215.64,0,0,0-88.3,17.71,89.11,89.11,0,0,1-5.24-10.82A256.21,256.21,0,0,1,126.79,33.1a256.17,256.17,0,0,1,93.54,18.23S219.26,54.65,215.09,62.15Z"/></svg>